<?xml version="1.0" encoding="utf-8"?>
<!-- Generator: Adobe Illustrator 18.1.1, SVG Export Plug-In . SVG Version: 6.00 Build 0)  -->
<svg version="1.1" id="Ebene_1" xmlns="http://www.w3.org/2000/svg" xmlns:xlink="http://www.w3.org/1999/xlink" x="0px" y="0px"
	 viewBox="31.2 265.1 672.8 179.3" enable-background="new 31.2 265.1 672.8 179.3" xml:space="preserve">
<linearGradient id="SVGID_1_" gradientUnits="userSpaceOnUse" x1="501.6812" y1="702.86" x2="501.6812" y2="543.46" gradientTransform="matrix(1.1249 0 0 -1.1249 0 1055.6897)">
	<stop  offset="0" style="stop-color:#F2AD51"/>
	<stop  offset="0.803" style="stop-color:#FFAD28"/>
</linearGradient>
<path fill="url(#SVGID_1_)" d="M562.1,320.7c0.4,0,0.6,0.1,0.7,0.4c0.2,0.6,0.8,0.9,1.2,0.8s1.1,0.3,1.2,0.8
	c0.1,0.4,0.6,0.6,0.8,0.2c0.1-0.1,0.2-0.3,0.4-0.3c0.4-0.1,1-1,0.9-1.4c-0.1-0.2-0.3-0.5-0.5-0.6c-0.3-0.2-0.3-0.3-0.2-0.6
	c0.1-0.2,0.2-0.5,0.1-0.6c0-0.1,0.1-0.4,0.2-0.6c0.3-0.4,0.2-1-0.1-1.1c-0.1,0-0.2-0.2-0.3-0.5c-0.2-0.6-0.7-1-1.1-0.7
	c-0.3,0.2-0.3,0.1-0.5-0.3c-0.1-0.4-0.3-0.6-0.5-0.7c-0.4-0.1-0.6-0.1-0.5,0.1c0,0.1-0.3,0.3-0.6,0.4l-0.7,0.2l0.2,0.9
	c0.1,0.5,0.1,1,0.1,1.1c-0.1,0.1-0.1,0.4,0,0.6c0.1,0.3,0.1,0.3-0.3,0.1c-0.2-0.1-0.6-0.2-0.9,0c-0.5,0.2-0.5,0.2-0.3,1
	C561.6,320.7,561.6,320.7,562.1,320.7z"/>
<linearGradient id="SVGID_2_" gradientUnits="userSpaceOnUse" x1="524.3316" y1="702.86" x2="524.3316" y2="543.46" gradientTransform="matrix(1.1249 0 0 -1.1249 0 1055.6897)">
	<stop  offset="0" style="stop-color:#F2AD51"/>
	<stop  offset="0.803" style="stop-color:#FFAD28"/>
</linearGradient>
<path fill="url(#SVGID_2_)" d="M579.3,331.9c-0.3,0.4-0.3,0.5,0.1,1c0.4,0.5,0.5,0.5,1.1,0.4c0.7-0.2,0.9-0.6,0.4-1.3
	c-0.2-0.5-0.1-0.6,0.3-0.4c0.2,0.1,0.3,0.1,0.4-0.2c0.1-0.2,0.1-0.5,0.1-0.7c0-0.1,0-0.2,0.1-0.3c0.1,0,0.2,0.2,0.3,0.5
	s0.2,0.6,0.4,0.7c0.3,0.2,1,0,1-0.2c-0.1-0.3,0.5-0.3,0.7,0c0.2,0.4,0.9,0.3,1.1-0.3l0.2-0.4l0.3,0.4c0.2,0.3,0.4,0.4,0.6,0.2
	c0.3-0.1,0.4-0.1,0.6,0.2c0.3,0.4,0.7,0.5,0.8,0.1c0-0.1,0.3-0.3,0.5-0.3c0.3-0.1,0.6-0.1,0.6,0c0.1,0.1,0.5,0.1,1-0.1
	c0.7-0.2,0.8-0.2,0.9,0.1c0.1,0.5,0.8,1.1,1.2,1c0.2,0,0.4-0.3,0.5-0.6l0.2-0.6l0.1,0.5c0.1,0.6,0.7,1,1.2,0.9
	c0.2,0,0.3,0.1,0.5,0.5c0.2,0.5,0.2,0.6,0.9,0.4c0.6-0.1,0.7,0,0.8,0.2c0,0.2,0.2,0.3,0.3,0.3c0.1,0,0.2,0.3,0.3,0.7
	c0.1,0.4,0.3,0.7,0.4,0.8c0.1,0,0.3,0.3,0.3,0.6c0.1,0.3,0.2,0.5,0.3,0.6c0.1,0.1,0.3,0.3,0.4,0.6c0.1,0.4,0.2,0.4,1,0.3l0.8-0.1
	l-0.3-1.1c-0.1-0.6-0.2-1.1-0.1-1.2c0.1-0.1,0.1-0.3,0-0.5c-0.1-0.4,0.1-0.5,0.4-0.2c0.1,0.1,0.3,0,0.4-0.2c0.3-0.4,0-1.7-0.3-1.8
	c-0.1,0-0.2-0.3-0.3-0.6c-0.1-0.3-0.2-0.6-0.3-0.6c-0.3-0.1-0.3-0.5,0-0.7c0.3-0.2,0.3-0.8-0.1-1c-0.1,0-0.2-0.3-0.3-0.5
	c-0.1-0.2-0.2-0.5-0.3-0.5c-0.1,0-0.3-0.3-0.4-0.7c-0.1-0.3-0.3-0.8-0.5-0.9c-0.2-0.1-0.4-0.5-0.5-0.8c-0.2-0.4-0.2-0.6,0-0.6
	c0.2-0.1,0.4-0.8,0.3-1.3c0-0.1-0.2-0.2-0.3-0.2c-0.8,0.2-1.6-0.5-1.9-1.4c-0.1-0.3-0.2-0.4-0.6-0.3c-0.4,0.1-0.6,0-0.9-0.4
	c-0.2-0.3-0.5-0.7-0.5-0.9c-0.1-0.3-0.3-0.4-0.6-0.5c-0.3,0-0.4-0.2-0.4-0.4c0-0.2,0.1-0.3,0.2-0.3c0.1,0,0.1-0.3-0.1-0.6
	c-0.2-0.5-0.2-0.6-1-0.4c-1.1,0.2-2.3-0.1-2.5-0.6c-0.1-0.3-0.3-0.4-0.7-0.3c-0.5,0.1-0.6,0-0.8-0.7c-0.2-0.7-0.3-0.7-0.9-0.6
	c-0.4,0.1-0.7,0-0.7-0.1c-0.1-0.4-0.4-0.4-0.7-0.1c-0.2,0.2-0.2,0.2-0.3-0.1c0-0.2-0.2-0.4-0.3-0.3c-0.1,0-0.2-0.3-0.3-0.6
	c-0.1-0.4-0.3-0.8-0.6-0.9c-0.4-0.3-0.6-0.2-0.7,0.1c0,0.1-0.2,0.2-0.4,0.3c-0.2,0.1-0.5,0.3-0.6,0.5c-0.2,0.5-0.5,0.6-1,0.4
	c-0.3-0.1-0.4-0.1-0.7,0.4c-0.2,0.4-0.2,0.5,0,0.7c0.4,0.2,0.5,1.1,0.3,1.9c-0.1,0.4-0.1,0.9,0,1c0.1,0.2,0.1,0.5-0.1,0.7
	c-0.2,0.4-0.2,0.9,0,0.9c0.2-0.1,1.1,1.2,1.2,1.8c0.1,0.3,0.3,0.7,0.4,0.9c0.3,0.2,0.3,0.6-0.1,0.7c-0.3,0.1-0.3,0.6,0,0.9
	c0.5,0.4,0.5,0.7,0.1,1.4c-0.5,0.8-0.9,1.1-1.5,1.3c-0.3,0.1-0.6,0.3-0.8,0.5c-0.1,0.2-0.4,0.4-0.5,0.4c-0.1,0-0.5,0.2-0.7,0.5
	c-0.5,0.4-0.5,1,0.1,1.6C579.6,331.4,579.6,331.5,579.3,331.9z"/>
<linearGradient id="SVGID_3_" gradientUnits="userSpaceOnUse" x1="575.9189" y1="702.86" x2="575.9189" y2="543.46" gradientTransform="matrix(1.1249 0 0 -1.1249 0 1055.6897)">
	<stop  offset="0" style="stop-color:#F2AD51"/>
	<stop  offset="0.803" style="stop-color:#FFAD28"/>
</linearGradient>
<path fill="url(#SVGID_3_)" d="M641.3,342.6c0.2-0.1,0.6,1.5,0.5,2c-0.1,0.3-0.1,0.5,0.2,0.7c0.2,0.2,0.4,0.6,0.4,0.9
	c0.1,0.4,0.3,0.7,0.5,0.8c0.2,0.1,0.4,0.4,0.6,1c0.2,0.5,0.4,0.9,0.6,1c0.2,0.1,0.3,0.3,0.4,0.6s0.2,0.5,0.3,0.5
	c0.1,0,0.3,0.4,0.4,0.8c0.1,0.4,0.3,0.7,0.3,0.7c0.1,0,0.2,0.2,0.3,0.4s0.2,0.6,0.4,0.8c0.2,0.2,0.3,0.4,0,0.9
	c-0.2,0.4-0.2,0.6,0,0.7c0.1,0.1,0.3,0.3,0.3,0.5c0,0.2,0.2,0.3,0.4,0.2c0.4-0.1,1,0.3,1.2,0.9c0.1,0.4,0.2,0.5,0.6,0.4
	c0.4-0.1,0.5-0.1,0.6,0.3c0.1,0.2,0.3,0.6,0.5,0.8c0.3,0.3,0.5,0.3,0.6,0.1c0.1-0.1,0.4-0.3,0.6-0.4c0.3-0.1,0.6-0.2,0.7-0.4
	c0.1-0.1,0.4-0.3,0.7-0.5c0.3-0.2,0.4-0.3,0.3-0.7c-0.1-0.4,0-0.6,0.1-0.6c0.3-0.1,0.7-0.9,0.7-1.2c-0.1-0.4,0.2-0.7,0.5-0.6
	c0.2,0.1,0.3,0.1,0.4-0.1c0.1-0.2,0.1-0.3,0-0.2c-0.1,0-0.1-0.1,0-0.3c0.1-0.3,0.1-0.4-0.2-0.8c-0.3-0.4-0.3-0.6-0.2-0.8
	c0.1-0.2,0-0.6-0.2-1.1c-0.2-0.5-0.4-1-0.4-1.2c-0.1-0.2-0.2-0.4-0.4-0.5c-0.2-0.1-0.4-0.5-0.5-0.8c-0.2-0.8-0.7-1.2-1.1-0.7
	c-0.2,0.3-0.3,0.2-0.4-0.1c-0.1-0.3-0.2-0.4-0.4-0.4c-0.4,0.1-0.8-0.2-0.9-0.7c-0.1-0.5-0.5-0.7-0.9-0.4c-0.1,0.1-0.4-0.1-0.6-0.3
	c-0.2-0.3-0.6-0.5-0.8-0.5c-0.2,0-0.4-0.2-0.5-0.4c-0.1-0.5-0.8-1.1-1.2-1c-0.2,0-0.3,0-0.4-0.2c-0.1-0.3-1.1-1.3-1.5-1.6
	c-0.2-0.1-0.4-0.1-0.6,0.1c-0.2,0.2-0.4,0.2-0.4,0.2c-0.1-0.1-0.1-0.2,0-0.2c0.3-0.2,0.1-0.7-0.4-1c-0.4-0.3-0.6-0.3-0.6,0.1
	c0,0.1-0.2,0.3-0.5,0.4c-0.5,0.2-0.5,0.3-0.4,0.8c0,0.3,0,0.6-0.1,0.6c-0.1,0-0.1,0.2,0,0.5C641.1,342.4,641.3,342.6,641.3,342.6z"
	/>
<linearGradient id="SVGID_4_" gradientUnits="userSpaceOnUse" x1="545.8" y1="702.86" x2="545.8" y2="543.46" gradientTransform="matrix(1.1249 0 0 -1.1249 0 1055.6897)">
	<stop  offset="0" style="stop-color:#F2AD51"/>
	<stop  offset="0.803" style="stop-color:#FFAD28"/>
</linearGradient>
<path fill="url(#SVGID_4_)" d="M690.4,265.1h-153c-7.4,0-13.5,6.1-13.5,13.5v5.8c2.6,1.1,5.7,2.1,9.9,3.2c2,0.5,4.8,1.3,6.2,1.8
	c2.8,0.9,10.8,4.6,14.9,6.9c1.3,0.7,3.9,2,5.8,2.9c4.5,2.1,6.5,3.1,10.4,5.4c1.8,1.1,4.9,2.7,6.9,3.6c2.4,1.1,4.4,2.2,6,3.2
	c1.3,0.9,4.3,2.5,6.8,3.7c2.5,1.2,6.3,3.3,8.6,4.6c3.7,2.2,4.5,2.6,8.1,3.9c2.2,0.8,5.4,2.1,7,2.8c1.7,0.7,5.5,2.1,8.6,3.1
	c3.1,1,6.6,2.3,8,2.9c1.5,0.7,3.5,1.4,5.4,1.9c2.5,0.7,3.5,1,5.5,2.1c1.6,0.8,2.9,1.7,3.7,2.4c0.9,0.8,2,1.5,3.5,2.2l2.2,1.1l2,2.5
	c1.9,2.3,2.1,2.6,3,4.6l0.9,2.1v2.2c0,1.2-0.1,3.1-0.2,4.1c-0.1,1-0.3,2.8-0.4,4c-0.2,3.2-0.8,5.6-2.3,8.4c-0.9,1.8-1.5,2.6-2.4,3.5
	l-1.2,1.2l-1.3,0.2c-1,0.2-1.2,0.2-1.2,0.4c0.1,0.4-1.2,1.4-2.1,1.7c-0.2,0.1-0.5,0.2-0.5,0.3c-0.1,0.4-0.3,0.3-0.8-0.4
	c-0.3-0.3-0.6-0.6-0.7-0.6c-0.1,0-0.3-0.1-0.3-0.3c-0.1-0.6-1.2-0.5-1.4,0.1c-0.1,0.2-0.4,0.4-0.8,0.5c-0.6,0.1-0.7,0.2-0.8,0.9
	c-0.1,0.9-0.6,1.2-1.2,0.7c-0.2-0.2-0.5-0.3-0.6-0.2c-0.2,0-0.1-0.3,0-1.1c0.1-0.6,0.2-1.2,0.2-1.4c0-0.2,0.1-0.3,0.4-0.4
	c1-0.3,1.1-1.8,0.2-2.2c-0.9-0.4-2,0.3-1.8,1.1c0,0.2,0,0.4-0.1,0.4c-0.1,0-0.2,0.2-0.2,0.4s-0.1,0.4-0.2,0.4
	c-0.3,0.1-0.4,0.5-0.1,0.7c0.2,0.1,0.1,0.3-0.4,0.7c-0.5,0.4-0.6,0.5-0.4,0.8c0.2,0.3,0.1,0.3-0.3,0.5c-0.3,0.1-0.5,0.2-0.5,0.3
	c0,0.1-0.2,0.3-0.5,0.4c-0.4,0.1-0.5,0.3-0.5,0.7c0.1,0.3-0.1,0.6-0.5,0.8c-0.5,0.3-0.6,0.3-0.9,0.1c-0.4-0.2-0.4-0.3-0.3-1.1
	c0-0.5,0.2-1.1,0.3-1.4c0.2-0.3,0.3-0.6,0.2-0.8c0-0.1,0.1-0.2,0.3-0.3c0.2,0,0.3-0.2,0.3-0.4c0-0.3-0.2-0.8-0.5-0.7
	c-0.1,0-0.2-0.1-0.2-0.3c-0.1-0.6-1.1-0.2-1.5,0.6c-0.2,0.3-0.4,0.7-0.6,0.7c-0.1,0-0.3,0.2-0.3,0.4c-0.1,0.2-0.4,0.4-0.8,0.5
	c-0.4,0.1-0.7,0.3-0.8,0.6c-0.1,0.2-0.4,0.5-0.6,0.5c-0.2,0.1-0.4,0.3-0.4,0.5c0,0.4-0.1,0.4-0.3,0.2c-0.2-0.2-0.3-0.3-0.2-0.6
	c0.1-0.2,0.1-0.5,0-0.7c0-0.2,0-0.5,0.1-0.6c0.1-0.2,0.2-0.5,0.3-0.7c0-0.3,0.2-0.5,0.7-0.7c0.6-0.2,0.6-0.3,0.5-0.8
	c0-0.3-0.3-0.8-0.4-0.9c-0.4-0.4-0.3-0.8,0.3-1c0.3-0.1,0.4-0.2,0.3-0.6c-0.1-0.4-0.1-0.6,0.2-0.6c0.4-0.1,0.5-0.5,0.2-0.7
	c-0.1-0.1-0.3-0.4-0.4-0.8c-0.1-0.5-0.3-0.7-0.6-0.8c-1.4-0.5-2-0.4-2.7,0.2c-0.4,0.3-0.4,0.5-0.3,0.9c0.1,0.4,0,0.5-0.2,0.6
	c-0.3,0.1-0.3,0.2-0.1,0.5c0.2,0.3,0.2,0.4,0,0.4c-0.2,0-0.3,0.1-0.4,0.3c-0.1,0.2-0.2,0.3-0.3,0.4c-0.1,0-0.2,0.2-0.2,0.4
	c0,0.2-0.2,0.6-0.3,0.8c-0.3,0.4-0.4,0.4-0.7,0.2c-0.4-0.2-1.1-0.1-1.3,0.2c-0.1,0.2-0.2,0.2-0.4,0c-0.3-0.3-0.1-0.6,0.6-0.9
	c0.4-0.1,0.5-0.3,0.4-0.6c0-0.2-0.1-0.4-0.2-0.4c-0.2,0.1-0.4-0.4-0.2-0.6c0.1-0.1,0.3-0.1,0.4,0c0.8,0.5,1.2-0.7,0.4-1.2
	c-0.4-0.3-0.4-0.4,0.1-1.3c0.3-0.6,0-1.1-0.9-1.3c-0.5-0.1-0.5-0.1-0.7,0.3c-0.2,0.4-0.4,0.5-1.1,0.7c-0.8,0.2-0.8,0.2-0.8,0.7
	c0,0.3,0.2,0.6,0.4,0.8c0.4,0.4,0.4,0.6-0.3,0.8c-0.6,0.2-0.8,0.6-0.3,1.1c0.2,0.2,0.3,0.6,0.4,0.9c0.1,0.5,0,0.6-0.5,0.7
	c-0.5,0.2-0.6,0.3-0.5,0.6c0.1,0.4-0.1,1-0.4,0.9c-0.4,0-1.1,0.7-1.2,1.2c0,0.3-0.2,0.6-0.5,0.7c-0.6,0.3-0.9,0.6-0.9,1.1
	s-0.2,0.6-0.4,0.3c-0.1-0.1-0.3-0.1-0.6,0c-0.5,0.1-0.6-0.2-0.1-0.5c0.4-0.3,0.4-0.4-0.1-1c-0.5-0.6-0.3-1.2,0.3-1.5
	c1.2-0.6,1.5-1.2,1.2-2.8c-0.1-0.7-0.1-0.8,0.3-1c0.4-0.2,0.5-0.3,0.4-0.7c0-0.3,0-0.6,0.1-0.7c0.1-0.1,0-0.6-0.1-1
	c-0.1-0.6-0.1-1,0.1-1.4c0.3-0.6,0.2-0.7-0.1-1c-0.2-0.2-0.4-0.5-0.5-0.8c-0.1-0.3-0.3-0.4-0.8-0.3c-0.8,0.1-1.2,0.7-1,1.4
	c0.1,0.3,0,0.6-0.2,0.7c-0.2,0.1-0.2,0.3-0.1,0.5c0.1,0.3,0.1,0.3-0.1,0.3c-0.5-0.1-1,0.7-0.8,1.4c0.1,0.3,0.3,0.6,0.4,0.6
	c0.4,0.1-0.3,0.8-0.9,0.9c-0.3,0.1-0.6,0.2-0.6,0.3c0,0.1-0.2,0.2-0.4,0.3s-0.5,0.2-0.5,0.3c0,0.1,0,0.3,0.1,0.4c0,0.1,0,0.3,0,0.4
	c0.1,0.4-0.3,0.4-0.5,0c-0.1-0.2-0.3-0.3-0.4-0.2c-0.2,0.1-0.4,0-0.6-0.2c-0.2-0.3-0.2-0.4,0-0.5c0.2-0.1,0.2-0.4,0.2-0.7
	c-0.1-0.4,0-0.6,0.4-0.8s0.5-0.3,0.4-0.8c0-0.4,0-0.6,0.3-0.7c0.4-0.2,0.9-0.8,0.8-1.1c0-0.1-0.2-0.3-0.4-0.4
	c-0.4-0.2-0.4-0.4,0-0.7c0.3-0.2,0.3-0.4,0.2-0.7c-0.1-0.2-0.1-0.6,0-0.8c0.3-0.9-0.3-1.5-1.4-1.2c-0.6,0.2-0.8,0.3-0.9,0.7
	c-0.1,0.3-0.1,0.6,0,0.7c0.1,0.1-0.1,0.6-0.3,1.1c-0.3,0.5-0.5,1.1-0.6,1.4c0,0.3-0.2,0.6-0.4,0.8c-0.2,0.2-0.4,0.5-0.4,0.8
	c0,0.3-0.3,0.7-0.6,1c-0.3,0.3-0.5,0.7-0.4,0.8c0.1,0.2,0,0.4-0.3,0.4c-0.3,0.1-0.4,0.2-0.4,0.5c0,0.4-0.4,0.8-0.8,0.7
	c-0.1,0-0.2-0.3-0.3-0.5c-0.1-0.2-0.2-0.4-0.3-0.5c-0.1,0-0.1-0.3,0-0.8c0.1-0.4,0.1-0.8,0.1-1c0-0.1,0-0.3,0.1-0.3
	c0.1,0,0.1-0.2,0.1-0.5c0-0.2,0.1-0.6,0.3-0.7c0.3-0.3,0.2-1.2-0.2-1.4c-0.2-0.2-0.2-0.2,0.2-0.3c0.1,0,0.1-0.3,0.1-0.6
	c-0.1-0.7-0.7-1-1.4-1c-0.7,0.1-0.9,0.3-0.7,0.9c0.1,0.4,0.1,0.5-0.3,0.6c-0.6,0.1-0.9,0.8-0.8,1.3c0.2,0.5,0.2,0.6-0.1,0.5
	c-0.2-0.1-0.4-0.1-0.5,0.1c-0.1,0.2-0.3,0.3-0.6,0.4c-0.2,0.1-0.4,0.2-0.4,0.5c0,0.4,0,0.4-0.5,0.3c-0.5-0.2-0.9,0.5-0.8,1.2
	c0.1,0.3,0,0.5-0.1,0.6c-0.4,0.1-0.7-0.2-0.9-0.8c-0.1-0.3-0.2-0.6-0.4-0.8c-0.3-0.4-0.3-0.5,0.4-0.8c0.4-0.2,0.5-0.3,0.4-0.6
	c-0.2-0.5,0.1-0.9,0.8-1.1c0.5-0.1,0.6-0.2,0.6-0.5c-0.1-0.2-0.2-0.4-0.3-0.4c-0.1-0.1-0.1-0.2,0-0.6c0.3-0.6,0.4-1.3,0.3-1.6
	c0-0.1,0-0.4,0.1-0.5c0.1-0.2,0.1-0.5,0.1-0.7c-0.1-0.2,0-0.5,0.2-0.6c0.3-0.2,0.3-0.8-0.1-1c-0.1,0-0.3-0.3-0.3-0.6
	c-0.1-0.5-0.4-0.6-0.7-0.2c-0.1,0.1-0.3,0.3-0.5,0.4c-0.3,0.1-0.4,0.3-0.3,0.6c0.1,0.5-0.6,1.3-1.3,1.5c-0.2,0.1-0.3,0.2-0.2,0.4
	c0.1,0.4-0.5,1.2-0.8,1.1c-0.1,0-0.3,0.2-0.6,0.4c-0.2,0.3-0.5,0.7-0.7,0.9c-0.3,0.3-0.3,0.3-0.4-0.1c-0.1-0.3,0-0.5,0.4-0.8
	c0.5-0.4,0.6-1,0.1-1.2c-0.4-0.1-0.3-0.6,0.3-1.1c0.5-0.4,0.6-0.6,0.5-1c-0.1-0.2,0-0.7,0.2-0.9c0.3-0.4,0.3-0.4-0.2-0.9
	c-0.2-0.2-0.5-0.5-0.5-0.5c-0.1-0.1-1.6,0.4-1.7,0.6c-0.1,0.1-0.3,0.2-0.5,0.3c-0.4,0.1-0.7,1.2-0.4,1.6c0.1,0.1,0,0.3-0.2,0.3
	c-0.2,0-0.4,0.2-0.6,0.3c-0.1,0.1-0.3,0.1-0.3-0.1c0-0.2-0.2-0.3-0.4-0.3c-0.2,0-0.3-0.1-0.3-0.2c0.1-0.1,0.1-0.3,0.2-0.5
	c0-0.2,0.1-0.4,0.3-0.4c0.1,0,0.3-0.3,0.4-0.6c0.2-0.6,0-1.3-0.2-1.2c-0.3,0.1-0.3-0.4,0-0.7c0.6-0.6-0.2-1.5-1.1-1.3
	c-0.4,0.1-0.6,0.3-0.6,0.7c0,0.3-0.1,0.6-0.2,0.6c-0.1,0-0.3,0.3-0.5,0.6c-0.3,0.5-0.3,0.6-0.6,0.3c-0.2-0.2-0.3-0.3-0.1-0.4
	c0.1-0.1,0.1-0.4,0-0.8c-0.1-0.4-0.1-0.7,0-0.8c0.1-0.1,0.1-0.3,0.1-0.6c-0.1-0.5-0.7-1.1-1.2-1c-0.1,0-0.3-0.1-0.3-0.3
	c-0.1-0.4-0.5-0.6-0.6-0.2c-0.1,0.5-0.7,0-0.9-0.8c-0.1-0.4-0.2-0.7-0.3-0.7c-0.1,0-0.2-0.2-0.3-0.5c-0.1-0.6-0.5-0.8-0.7-0.4
	c-0.1,0.2-1.1,0.1-1.3-0.2c-0.1-0.1-0.2-0.1-0.2,0c-0.1,0.1-0.3,0-0.6-0.2c-0.3-0.2-0.6-0.3-0.7-0.3c-0.1,0-0.3-0.2-0.3-0.5
	c-0.1-0.5-0.4-0.7-1-0.5c-0.2,0-0.3,0-0.4-0.2c0-0.2-0.2-0.2-0.3-0.1c-0.2,0.1-0.4,0-0.8-0.4c-0.6-0.7-0.8-0.8-1.7-0.5
	c-0.4,0.1-0.9,0.2-1.2,0.1c-0.4-0.1-0.5-0.1-0.7,0.2c-0.1,0.2-0.4,0.3-0.6,0.3c-0.2,0-0.6,0.2-0.7,0.4c-0.4,0.5-0.5,0.5-0.6,0.2
	c0-0.1-0.2-0.3-0.4-0.4c-0.2-0.1-0.4-0.1-0.6,0.2c-0.3,0.3-0.4,0.3-0.7,0.2c-0.2-0.1-0.6-0.1-0.8-0.1c-0.2,0-0.5,0-0.6-0.1
	c-0.4-0.3-1.4-0.5-1.8-0.4c-0.3,0.1-0.4,0-0.5-0.3c-0.2-0.6-1.2-0.4-2,0.4c-0.3,0.3-0.6,0.7-0.7,0.7c0,0-0.2-0.2-0.4-0.4
	c-0.1-0.2-0.4-0.4-0.5-0.3c-0.1,0-0.3-0.1-0.3-0.2c-0.1-0.2-0.2-0.2-0.5-0.1c-0.3,0.1-0.4,0.1-0.4,0c-0.2-0.8-1.4-1.5-2.2-1.2
	c-0.3,0.1-0.4,0-0.5-0.3c-0.1-0.3-0.2-0.3-0.9-0.1l-0.8,0.2l0.2,0.7c0.2,0.7,0.1,0.7-0.3,1c-0.6,0.3-0.9,1.5-0.5,1.8
	c0.4,0.2,0.3,0.4,0,0.5c-0.3,0.1-0.3,0.2-0.2,0.6c0.1,0.3,0.4,0.8,0.6,1.1c0.3,0.3,0.5,0.7,0.6,0.9c0.1,0.4,0.5,0.7,1,0.6
	c0.2-0.1,0.5,0,0.6,0.1c0.1,0.1,0.3,0.1,0.4,0c0.2-0.1,0.5-0.1,0.9,0.1c0.3,0.2,0.7,0.3,0.8,0.3c0.1,0,0.2,0.2,0.3,0.4
	c0.1,0.4,0.3,0.5,0.8,0.7c0.4,0.1,0.7,0.3,0.7,0.4c0.1,0.3,0.8,0.8,1.1,0.8c0.1,0,0.5,0,0.9,0.2c0.5,0.2,0.7,0.3,0.8,0.9
	c0.1,0.4,0.3,0.7,0.4,0.8c0.1,0,0.2,0.3,0.3,0.5c0.1,0.2,0.2,0.5,0.4,0.6c0.2,0.1,0.3,0.3,0.4,0.6c0.1,0.4,0.6,0.9,0.9,0.8
	c0.3-0.1,0.9,0.8,1.1,1.4c0.2,0.7,1.9,1.7,2.6,1.5c0.3-0.1,0.7,0,2.1,0.5c0.6,0.2,1.1,0.4,1.1,0.3c0.3-0.1,0.9,0.4,1,0.8
	c0.1,0.3,0.3,0.6,0.7,0.8c0.4,0.2,0.6,0.4,0.5,0.6c-0.2,0.3,0.2,1.8,0.4,1.7c0.1,0,0.2,0.2,0.3,0.5c0.1,0.3,0.3,0.6,0.4,0.7
	c0.2,0.1,0.3,0.3,0.3,0.6c0,0.5,0.7,1.2,1,1.1c0.3-0.1,0.9,0.6,1.1,1.1c0.1,0.2,0.2,0.5,0.4,0.6c0.2,0.1,0.3,0.3,0.3,0.4
	c0,0.1,0.1,0.3,0.3,0.5c0.2,0.1,0.4,0.5,0.5,0.7c0.1,0.4,0.2,0.4,0.6,0.3c0.2-0.1,0.5-0.1,0.6,0c0.1,0.1,0,0.2-0.2,0.3
	c-0.3,0.1-0.3,0.2-0.2,0.7c0.2,0.6,0.2,0.6,0.7,0.5c0.5-0.1,0.5-0.1,0.2,0.2c-0.4,0.4-0.3,0.7,0.1,1c0.2,0.1,0.3,0.3,0.3,0.5
	c0,0.4,0.4,0.7,0.8,0.6c0.5-0.1,0.9,0.1,0.8,0.5c-0.1,0.2-0.3,0.3-0.4,0.4c-0.3,0.1-0.3,0.5,0,0.7c0.1,0,0.3,0.3,0.3,0.6
	c0.1,0.4,0.2,0.5,0.5,0.4c0.2-0.1,0.4-0.2,0.5-0.3c0-0.1,0.2-0.2,0.4-0.3c0.4-0.1,0.7-1,0.5-1.8c-0.1-0.3,0-0.4,0.2-0.5
	c0.2-0.1,0.3-0.2,0.3-0.3c0-0.1,0.1-0.2,0.3-0.3c0.1,0,0.4-0.5,0.5-1c0.1-0.5,0.3-0.9,0.4-1c0.3-0.1,0.3,0.5,0.2,1
	c-0.2,0.5-0.1,1.1,0.3,1.4c0.3,0.2,0.3,0.3,0.1,0.9c-0.2,0.3-0.3,0.7-0.2,0.8c0,0.1,0,0.2-0.1,0.2c-0.1,0-0.1,0.2-0.1,0.4
	c0,0.2,0,0.5-0.1,0.6c-0.1,0.1-0.1,0.4,0,0.6c0.1,0.3,0,0.4-0.3,0.6c-0.6,0.2-0.8,0.7-0.4,1.3c0.3,0.6,0.9,0.7,1.4,0.2
	c0.2-0.2,0.6-0.4,1-0.5c0.7-0.2,0.7-0.3,0.7-0.8c0-0.3,0-0.6,0-0.8c0.1-0.1,0.1-0.4,0-0.6c-0.1-0.4,0.1-0.6,0.3-0.3
	c0.1,0.2,0.2,0.1,0.4-0.2c0.1-0.2,0.3-0.4,0.4-0.4c0.1,0,0.2-0.2,0.1-0.4c-0.1-0.4,0-0.4,0.7,0.1l0.8,0.5l-0.3,1
	c-0.2,0.5-0.5,1.1-0.7,1.3c-0.2,0.2-0.4,0.5-0.4,0.8c0,0.3-0.2,0.5-0.4,0.5c-0.2,0.1-0.4,0.3-0.6,0.5c-0.2,0.4-0.2,0.4,0.2,0.9
	c0.3,0.3,0.5,0.4,0.8,0.4c0.3-0.1,0.4,0,0.5,0.3c0.1,0.2,0.3,0.6,0.5,0.7c0.3,0.3,0.3,0.4,0,0.6c-0.4,0.3-0.4,1.1-0.1,1
	c0.1,0,0.2,0.1,0.3,0.3c0.1,0.3,0.3,0.4,0.7,0.3c0.3,0,0.6-0.2,0.7-0.3c0.1-0.1,0.3-0.3,0.6-0.5c0.5-0.3,0.4-0.5-0.1-1.2
	c-0.6-0.7-0.4-0.8,0.4-0.3c0.8,0.5,1.1,1.1,0.7,1.7c-0.3,0.4-0.2,1.3,0.2,1.5c0.2,0.1,0.2,0.2-0.1,0.3c-0.3,0.1-0.3,0.2-0.2,0.7
	c0.2,0.8,0.7,1.1,1.5,0.9c0.3-0.1,0.7-0.3,0.7-0.4c0-0.1,0.3-0.3,0.5-0.3c0.3-0.1,0.5-0.3,0.6-0.4c0.1-0.2,0.3-0.3,0.4-0.4
	c0.1,0,0.2-0.2,0.2-0.3c0-0.2,0-0.4,0.2-0.5c0.1-0.1,0.3-0.2,0.3-0.3c0-0.1,0.2-0.3,0.5-0.5c0.5-0.4,0.6-0.9,0-1.4
	c-0.5-0.5-0.5-0.9,0-0.8c0.1,0,0.4-0.1,0.5-0.4c0.3-0.5,0.8-0.3,1,0.4c0.1,0.4,0.2,0.5,0.5,0.4c0.2,0,0.4,0,0.4,0.1
	c0,0.1-0.2,0.2-0.4,0.3c-0.6,0.2-0.7,0.6-0.3,1.1c0.3,0.4,0.2,1.2-0.1,1.3c-0.3,0.1-0.4,0.5-0.1,0.7c0.1,0.1,0.3,0.3,0.3,0.5
	c0.1,0.5,1.2,0.9,1.9,0.7c0.4-0.1,0.4-0.2,0.2-1c-0.2-0.7-0.2-1,0.1-1.4c0.4-0.7,0.8-0.6,1.1,0.3c0.1,0.4,0.3,0.7,0.5,0.7
	c0.2,0,0.2,0.1,0.1,0.8c-0.1,0.4-0.2,0.9-0.3,1.1c-0.2,0.3-0.1,0.9,0.2,1c0.1,0,0.2,0.2,0.3,0.4c0.1,0.4,0.8,0.3,1-0.1
	c0.1-0.1,0.4-0.3,0.8-0.4c0.6-0.2,0.6-0.3,0.5-0.7c-0.1-0.3-0.1-0.6,0-0.8c0.1-0.1,0.1-0.4,0-0.6c-0.1-0.2,0-0.6,0.1-0.8
	c0.1-0.2,0.2-0.6,0.2-0.7c0-0.2,0-0.3,0.1-0.4c0.1,0,0.1-0.2,0.1-0.5c-0.1-0.2-0.1-0.4,0-0.5c0,0,0.2-0.1,0.3-0.2
	c0.1-0.1,0.3-0.1,0.3,0.1c0.1,0.4,0.9,1.3,1.1,1.2c0.1,0,0.4,0.2,0.7,0.6c0.4,0.6,0.5,0.6,1,0.5c0.6-0.1,0.7,0.1,0.3,0.8
	c-0.2,0.4-0.2,0.6,0,0.8c0.2,0.2,0.3,0.4,0.4,0.6c0.1,0.4,0.6,0.7,1.1,0.8c0.2,0,0.3,0.2,0.3,0.4c0,0.2,0.1,0.4,0.3,0.5
	c0.2,0.1,0.4,0.3,0.4,0.5c0.1,0.5,1,0.6,1.3,0.3c0.2-0.2,0.5-0.3,0.7-0.4c0.3-0.1,0.4-0.2,0.3-0.5c-0.1-0.5,0.2-0.5,0.5,0
	c0.4,0.8,0.5,0.9,1.1,1.1c0.4,0.1,0.6,0.3,0.7,0.7c0.1,0.3,0.2,0.5,0.3,0.5c0.1,0,0.3,0.2,0.4,0.4c0.1,0.2,0.2,0.5,0.2,0.6
	c0.1,0.2,0.6,0,0.8-0.3c0.1-0.1,0.4-0.3,0.7-0.4c0.3-0.1,0.6-0.2,0.7-0.2c0.1,0,0.1-0.2,0-0.5c-0.1-0.2,0-0.9,0.1-1.4
	c0.2-0.9,0.2-0.9,0.3-0.5c0.1,0.3,0.2,0.5,0.3,0.5c0.1,0,0.2,0.2,0.3,0.5c0.1,0.6,0.5,0.7,1.2,0.6c0.4-0.1,0.6-0.2,0.6-0.5
	c0-0.5,0.1-0.5,0.5,0c0.5,0.7,0.6,1.1,0.2,1.2c-0.3,0.1-0.3,0.2-0.2,0.4c0.1,0.2,0.1,0.4-0.1,0.5c-0.2,0.2-0.2,0.4-0.1,1l0.2,0.8
	l0.8-0.3c0.4-0.2,1-0.4,1.2-0.5c0.3-0.2,0.4-0.2,0.6,0.2c0.1,0.2,0.4,0.5,0.7,0.5c0.3,0,0.7,0.3,1,0.6c0.4,0.5,0.4,0.6,0.3,1.2
	c-0.1,0.4-0.5,1.4-0.9,2.4c-0.7,1.7-0.8,1.9-0.8,4.2c0,2.1-0.1,2.6-0.5,3.5c-0.9,1.9-3.1,4.2-7.1,7.4c-3.5,2.7-4.7,3.4-7.3,4.1
	c-1.6,0.4-2,0.5-2.7,0.3c-1.2-0.3-10.1-4.1-14.9-6.5c-2.4-1.2-6.2-3.2-8.5-4.5c-4.5-2.6-8.1-4.2-18.7-8.4
	c-11.3-4.5-12.1-4.7-17.4-5.8c-4.3-0.9-5.1-1.1-8-2.3c-3.7-1.5-9.5-4.5-12.3-6.3c-2.9-1.9-6.5-3.5-11-4.9v42.6
	c0,7.4,6.1,13.5,13.5,13.5h153c7.4,0,13.5-6.1,13.5-13.5V278.6C703.9,271.1,697.9,265.1,690.4,265.1z"/>
<g>
	
		<linearGradient id="SVGID_5_" gradientUnits="userSpaceOnUse" x1="49.9" y1="661.96" x2="49.9" y2="588.46" gradientTransform="matrix(1.1249 0 0 -1.1249 0 1055.6897)">
		<stop  offset="0" style="stop-color:#F2AD51"/>
		<stop  offset="0.803" style="stop-color:#FFAD28"/>
	</linearGradient>
	<path fill="url(#SVGID_5_)" d="M31.2,366.6l7.8-0.9c0.3,4,1.2,7.3,2.6,9.9c1.3,2.6,3.5,4.6,6.3,6.2c2.8,1.6,6.1,2.4,9.7,2.4
		c3.1,0,6-0.6,8.3-1.8c2.5-1.2,4.3-2.8,5.4-4.9c1.2-2,1.8-4.4,1.8-6.9c0-2.5-0.6-4.7-1.7-6.5c-1.1-1.9-3-3.5-5.6-4.7
		c-1.7-0.9-5.4-2.1-11.1-3.9s-9.8-3.4-12-4.9c-3-2-5.2-4.5-6.6-7.4c-1.5-2.9-2.2-6.3-2.2-9.9c0-4,0.9-7.9,2.7-11.4
		c1.8-3.5,4.4-6.2,7.9-8c3.5-1.8,7.3-2.7,11.5-2.7c4.6,0,8.8,1,12.3,2.9c3.5,1.9,6.3,4.7,8.2,8.4s2.9,7.9,3.1,12.6l-8,0.8
		c-0.4-5.1-1.9-8.9-4.4-11.5c-2.6-2.7-6.2-3.9-11-3.9c-5.1,0-8.7,1.1-10.9,3.5c-2.2,2.4-3.4,5.2-3.4,8.4c0,2.9,0.8,5.3,2.5,7.1
		c1.6,1.9,5.7,3.8,12.5,5.7c6.7,1.9,11.4,3.6,13.8,5.1c3.7,2.1,6.3,4.8,8.1,8.1c1.7,3.3,2.6,7.1,2.6,11.5c0,4.2-0.9,8.2-2.8,12
		c-1.9,3.8-4.6,6.7-8.2,8.8c-3.6,2-7.6,3.1-12.1,3.1c-5.6,0-10.3-1-14.2-3.1c-3.8-2.1-6.9-5.3-9-9.6C32.6,376.8,31.3,372,31.2,366.6
		z"/>
	
		<linearGradient id="SVGID_6_" gradientUnits="userSpaceOnUse" x1="103" y1="660.76" x2="103" y2="589.66" gradientTransform="matrix(1.1249 0 0 -1.1249 0 1055.6897)">
		<stop  offset="0" style="stop-color:#F2AD51"/>
		<stop  offset="0.803" style="stop-color:#FFAD28"/>
	</linearGradient>
	<path fill="url(#SVGID_6_)" d="M92.5,392.3v-79.9h45.3v9.4h-37v24.5h34.6v9.3h-34.6V383h38.5v9.4H92.5V392.3z"/>
	
		<linearGradient id="SVGID_7_" gradientUnits="userSpaceOnUse" x1="156.95" y1="660.76" x2="156.95" y2="589.66" gradientTransform="matrix(1.1249 0 0 -1.1249 0 1055.6897)">
		<stop  offset="0" style="stop-color:#F2AD51"/>
		<stop  offset="0.803" style="stop-color:#FFAD28"/>
	</linearGradient>
	<path fill="url(#SVGID_7_)" d="M150.6,392.3v-79.9h21.6c4.8,0,8.5,0.3,11.1,1.1c3.6,1,6.6,3,9.2,5.7c3.3,3.6,5.7,8.1,7.4,13.6
		c1.6,5.5,2.5,11.8,2.5,19c0,6.1-0.6,11.5-1.7,16.2c-1.1,4.7-2.6,8.5-4.3,11.7c-1.7,3-3.6,5.5-5.7,7.2c-2,1.8-4.6,3-7.5,4
		c-2.9,0.9-6.3,1.3-10,1.3h-22.6V392.3z M158.9,382.8h13.4c4.2,0,7.4-0.4,9.7-1.5c2.4-1,4.2-2.4,5.6-4.2c2-2.5,3.5-5.8,4.6-10.1
		c1.1-4.3,1.7-9.3,1.7-15.4c0-8.3-1.1-14.7-3.3-19.2s-4.7-7.5-7.9-9c-2.2-1.1-5.7-1.7-10.7-1.7h-13.2L158.9,382.8L158.9,382.8z"/>
	
		<linearGradient id="SVGID_8_" gradientUnits="userSpaceOnUse" x1="210.05" y1="660.86" x2="210.05" y2="589.76" gradientTransform="matrix(1.1249 0 0 -1.1249 0 1055.6897)">
		<stop  offset="0" style="stop-color:#F2AD51"/>
		<stop  offset="0.803" style="stop-color:#FFAD28"/>
	</linearGradient>
	<path fill="url(#SVGID_8_)" d="M207,392.3l24.1-80h9l25.5,80h-9.4l-7.3-24.2h-26.1l-7,24.2H207z M225.1,359.6h21.3l-6.5-22.2
		c-2-6.7-3.5-12.3-4.4-16.5c-0.8,5.2-1.9,10.2-3.4,15.2L225.1,359.6z"/>
	
		<linearGradient id="SVGID_9_" gradientUnits="userSpaceOnUse" x1="259.85" y1="660.76" x2="259.85" y2="589.66" gradientTransform="matrix(1.1249 0 0 -1.1249 0 1055.6897)">
		<stop  offset="0" style="stop-color:#F2AD51"/>
		<stop  offset="0.803" style="stop-color:#FFAD28"/>
	</linearGradient>
	<path fill="url(#SVGID_9_)" d="M288.1,392.3v-70.4h-20.6v-9.4h49.6v9.4h-20.7v70.5h-8.3V392.3z"/>
	
		<linearGradient id="SVGID_10_" gradientUnits="userSpaceOnUse" x1="310.4" y1="660.76" x2="310.4" y2="589.66" gradientTransform="matrix(1.1249 0 0 -1.1249 0 1055.6897)">
		<stop  offset="0" style="stop-color:#F2AD51"/>
		<stop  offset="0.803" style="stop-color:#FFAD28"/>
	</linearGradient>
	<path fill="url(#SVGID_10_)" d="M325.8,392.3v-79.9h45.3v9.4h-37v24.5h34.6v9.3h-34.6V383h38.5v9.4h-46.8V392.3z"/>
	
		<linearGradient id="SVGID_11_" gradientUnits="userSpaceOnUse" x1="363.9" y1="662.06" x2="363.9" y2="588.5543" gradientTransform="matrix(1.1249 0 0 -1.1249 0 1055.6897)">
		<stop  offset="0" style="stop-color:#F2AD51"/>
		<stop  offset="0.803" style="stop-color:#FFAD28"/>
	</linearGradient>
	<path fill="url(#SVGID_11_)" d="M428.7,364.3l8.3,2.7c-1.8,8.7-4.8,15.3-9.4,19.9c-4.5,4.6-10,6.9-16.5,6.9
		c-6.7,0-12.1-1.8-16.4-5.3c-4.3-3.5-7.4-8.5-9.7-15.2c-2.2-6.6-3.3-13.8-3.3-21.5c0-8.3,1.2-15.6,3.7-21.8
		c2.5-6.2,6.1-10.9,10.7-14.2c4.6-3.3,9.7-4.8,15.2-4.8c6.3,0,11.5,2,15.7,6.1c4.3,4,7.2,9.8,8.9,17.2l-8.2,2.5
		c-1.5-5.7-3.5-10-6.3-12.7c-2.8-2.7-6.2-4-10.5-4c-4.8,0-8.9,1.5-12,4.4c-3.3,2.9-5.5,6.9-6.9,11.9c-1.3,4.9-1.9,10.1-1.9,15.4
		c0,6.7,0.8,12.7,2.4,17.8s3.9,8.9,7.2,11.4c3.3,2.5,6.9,3.7,10.7,3.7c4.6,0,8.5-1.7,11.8-5.2C425.3,376.1,427.4,371,428.7,364.3z"
		/>
	
		<linearGradient id="SVGID_12_" gradientUnits="userSpaceOnUse" x1="419.6" y1="660.76" x2="419.6" y2="589.66" gradientTransform="matrix(1.1249 0 0 -1.1249 0 1055.6897)">
		<stop  offset="0" style="stop-color:#F2AD51"/>
		<stop  offset="0.803" style="stop-color:#FFAD28"/>
	</linearGradient>
	<path fill="url(#SVGID_12_)" d="M447.4,392.3v-79.9h8.3v32.7h32.6v-32.7h8.3v80h-8.4v-37.8h-32.6v37.7H447.4z"/>
</g>
</svg>
